; OM File Header - Saved 2013/01/11 23:12:19
; (6.050102 :patc (om-make-point 10 10) (om-make-point 129 66) (om-make-point 807 526) "" 183 0 "2012/12/20 16:08:29" "2012/12/21 0:39:24")
; End File Header
(in-package :om)(load-lib-for (quote ("geofutility")))(setf *om-current-persistent* (om-load-patch1 "curvy-patch" (quote ((om-load-boxcall (quote genfun) "INSPECT-THIS-PATCH" (quote inspect-this-patch) (quote nil) (om-make-point 611 33) nil nil nil nil 1) (om-load-boxcall (quote lispfun) "LIST" (quote list) (quote ((om-load-inputfun (quote input-funbox) "add-input" "add-input" 0) (om-load-inputfun (quote input-funbox) "add-input" "add-input" 0) (om-load-inputfun (quote input-funbox) "add-input" "add-input" 0) (om-load-inputfun (quote input-funbox) "add-input" "add-input" 0) (om-load-inputfun (quote input-funbox) "add-input" "add-input" 0) (om-load-inputfun (quote input-funbox) "add-input" "add-input" 0))) (om-make-point 211 192) (om-make-point 248 43) nil nil nil 1) (om-load-boxcall (quote lispfun) "SECOND" (quote second) (quote ((om-load-inputfun (quote input-funbox) "LIST" "LIST" nil))) (om-make-point 593 185) nil nil nil nil 1) (om-load-boxcall (quote lispfun) "SECOND" (quote second) (quote ((om-load-inputfun (quote input-funbox) "LIST" "LIST" nil))) (om-make-point 226 354) nil nil nil nil 1) (om-load-boxcall (quote lispfun) "SECOND" (quote second) (quote ((om-load-inputfun (quote input-funbox) "LIST" "LIST" nil))) (om-make-point 129 289) nil nil nil nil 1) (om-load-boxcall (quote lispfun) "GEOFUTILITY-SOURCES" (quote geofutility-sources) (quote nil) (om-make-point 398 300) nil nil nil nil 1) (om-load-boxcall (quote lispfun) "FIRST" (quote first) (quote ((om-load-inputfun (quote input-funbox) "LIST" "LIST" nil))) (om-make-point 265 37) nil nil nil nil 1))) (quote ((0 0 1 0 nil 0) (2 0 1 1 nil 0) (2 0 1 2 nil 0) (2 0 1 3 nil 0) (2 0 1 4 nil 0) (2 0 1 5 nil 0) (6 0 2 0 nil 0) (5 0 3 0 nil 0) (1 0 4 0 nil 0))) nil 6.050102))
